<?xml version="1.0" encoding="UTF-8"?>
<svg xmlns="http://www.w3.org/2000/svg" xmlns:xlink="http://www.w3.org/1999/xlink" width="2400" height="2400" viewBox="0 0 2400 2400">
<path fill-rule="evenodd" fill="rgb(100%, 100%, 100%)" fill-opacity="1" d="M -0.160156 0.160156 L 2399.839844 0.160156 L 2399.839844 2400.160156 L -0.160156 2400.160156 L -0.160156 0.160156 "/>
<path fill-rule="nonzero" fill="rgb(0%, 0%, 0%)" fill-opacity="1" d="M 1291.070312 1107.628906 C 1285.621094 1073.070312 1270.03125 1048.761719 1243.871094 1034.378906 C 1217.710938 1020.101562 1189.691406 1016.5 1159.390625 1024.238281 C 1129.089844 1031.871094 1104.121094 1047.238281 1084.941406 1070.570312 C 1068.371094 1091.28125 1057.140625 1116.570312 1051.800781 1146.320312 C 1046.351562 1176.078125 1046.019531 1206.058594 1051.148438 1236.148438 C 1056.269531 1266.121094 1065.210938 1295.558594 1077.628906 1324.011719 C 1082.761719 1335.78125 1087.550781 1348.859375 1092.351562 1363.570312 C 1097.148438 1378.289062 1101.941406 1395.191406 1107.070312 1414.589844 C 1112.191406 1434.101562 1114.699219 1452.632812 1115.019531 1470.183594 C 1115.351562 1487.734375 1113.710938 1504.410156 1110.230469 1520 C 1106.738281 1535.695312 1098.671875 1548.121094 1086.25 1557.390625 C 1073.820312 1566.652344 1057.140625 1571.121094 1036.761719 1571.121094 C 1020.191406 1571.121094 1004.820312 1565.019531 991.082031 1552.59375 C 977.347656 1540.164062 970.371094 1525.449219 970.371094 1508.554688 C 970.371094 1491.550781 974.839844 1480.429688 983.453125 1474.652344 C 989.773438 1478.46875 997.1875 1480.429688 1005.46875 1480.429688 C 1023.019531 1480.429688 1035.449219 1473.128906 1042.859375 1458.410156 C 1050.160156 1443.695312 1050.160156 1428.980469 1042.53125 1414.371094 C 1034.789062 1399.660156 1021.710938 1392.238281 1003.511719 1392.238281 C 983.453125 1392.238281 966.230469 1400.3125 952.167969 1416.226562 C 938.214844 1432.25 931.128906 1456.121094 931.128906 1488.386719 C 931.128906 1520.652344 940.722656 1546.488281 959.472656 1566 C 978.328125 1585.511719 1003.839844 1595.105469 1035.78125 1595.105469 C 1066.078125 1595.105469 1091.039062 1586.820312 1110.230469 1570.144531 C 1129.410156 1553.574219 1141.511719 1532.753906 1146.960938 1507.570312 C 1152.410156 1482.390625 1154.371094 1456.773438 1152.738281 1430.941406 C 1151.101562 1405.105469 1146.308594 1381.121094 1138.351562 1359.109375 C 1137.039062 1355.289062 1133.230469 1344.71875 1126.800781 1327.171875 C 1120.46875 1309.621094 1116.328125 1297.410156 1114.039062 1290.761719 C 1111.859375 1284 1108.261719 1272.558594 1103.46875 1255.988281 C 1098.671875 1239.308594 1095.839844 1226.550781 1094.859375 1217.621094 C 1093.878906 1208.679688 1093.21875 1196.800781 1092.679688 1182.078125 C 1092.019531 1167.359375 1092.898438 1154.941406 1095.839844 1145.019531 C 1098.671875 1135.101562 1102.808594 1124.199219 1108.589844 1112.421875 C 1114.371094 1100.539062 1121.78125 1089.75 1131.050781 1079.828125 C 1140.96875 1068.601562 1153.390625 1060.648438 1168 1055.519531 C 1182.71875 1050.398438 1197 1050.398438 1211.058594 1055.199219 C 1225.121094 1059.988281 1234.929688 1070.238281 1240.710938 1085.5 C 1250.628906 1112.75 1249.320312 1143.710938 1236.570312 1178.921875 C 1223.808594 1214.128906 1205.28125 1231.679688 1180.75 1231.679688 C 1178.25 1231.679688 1175.960938 1232 1174.429688 1232.328125 C 1163.53125 1233.308594 1161.351562 1236.800781 1168 1242.800781 C 1175.738281 1250.210938 1186.859375 1253.699219 1201.140625 1253.699219 C 1220 1253.699219 1236.570312 1245.410156 1251.171875 1228.839844 C 1265.890625 1212.171875 1276.460938 1192.648438 1282.460938 1170.628906 C 1288.558594 1148.511719 1290.089844 1128.671875 1287.578125 1110.789062 L 1291.070312 1107.628906 "/>
<path fill-rule="nonzero" fill="rgb(0%, 0%, 0%)" fill-opacity="1" d="M 1367.730469 1184.949219 C 1357.160156 1185.171875 1346.578125 1188 1335.679688 1193.449219 L 1373.730469 1089.679688 L 1378.300781 1078.558594 C 1380.808594 1071.261719 1381.789062 1063.851562 1380.808594 1056.539062 C 1379.828125 1049.128906 1375.691406 1045.308594 1368.378906 1045.308594 C 1362.929688 1045.308594 1357.480469 1047.929688 1352.359375 1053.050781 C 1347.238281 1058.070312 1343.308594 1063.191406 1340.800781 1068.308594 C 1338.191406 1073.441406 1336.011719 1079.539062 1333.71875 1086.519531 L 1261.121094 1287.308594 C 1258.828125 1292.761719 1256 1300.820312 1252.511719 1311.289062 C 1227.980469 1378.21875 1215.558594 1412.121094 1215.230469 1413.101562 C 1206.949219 1437.628906 1209.890625 1449.726562 1223.839844 1449.726562 C 1235.941406 1449.726562 1244.550781 1442.753906 1250 1428.796875 C 1258.289062 1443.078125 1270.929688 1450.054688 1287.941406 1449.726562 C 1298.511719 1449.402344 1309.078125 1446.785156 1319.660156 1442.097656 C 1352.898438 1427.816406 1380.808594 1398.058594 1402.941406 1352.929688 C 1424.300781 1308.78125 1431.929688 1269.101562 1425.828125 1234.21875 C 1419.839844 1199.988281 1400.320312 1183.96875 1367.398438 1185.5 Z M 1292.078125 1427.492188 C 1277.691406 1427.492188 1271.589844 1413.429688 1274.199219 1385.628906 C 1277.691406 1349.441406 1291.101562 1310.089844 1314.53125 1267.46875 C 1337.210938 1225.828125 1358.03125 1205.121094 1376.988281 1205.121094 C 1389.421875 1205.121094 1394.539062 1218.199219 1392.039062 1244.46875 C 1388.21875 1280.328125 1374.710938 1320.339844 1351.378906 1364.480469 C 1329.25 1406.453125 1309.738281 1427.164062 1292.730469 1427.164062 L 1292.078125 1427.492188 "/>
<path fill-rule="nonzero" fill="rgb(0%, 0%, 0%)" fill-opacity="1" d="M 852.542969 1438.328125 C 855.523438 1442.699219 854.398438 1448.660156 850.03125 1451.640625 C 845.660156 1454.621094 839.699219 1453.496094 836.71875 1449.128906 C 811.601562 1412.503906 792.3125 1372.46875 779.296875 1330.46875 C 766.277344 1288.460938 759.542969 1244.539062 759.542969 1200.160156 C 759.542969 1078.578125 808.824219 968.5 888.503906 888.820312 C 968.179688 809.148438 1078.25 759.859375 1199.839844 759.859375 C 1321.421875 759.859375 1431.5 809.148438 1511.179688 888.820312 C 1590.851562 968.5 1640.140625 1078.578125 1640.140625 1200.160156 C 1640.140625 1321.738281 1590.851562 1431.820312 1511.179688 1511.496094 C 1431.5 1591.175781 1321.421875 1640.457031 1199.839844 1640.457031 C 1161.261719 1640.457031 1122.988281 1635.375 1085.988281 1625.46875 C 1049.078125 1615.589844 1013.398438 1600.859375 979.902344 1581.542969 C 975.324219 1578.910156 973.746094 1573.066406 976.378906 1568.492188 C 979.007812 1563.914062 984.851562 1562.335938 989.425781 1564.96875 C 1021.359375 1583.382812 1055.5 1597.460938 1090.941406 1606.945312 C 1126.28125 1616.40625 1162.878906 1621.257812 1199.839844 1621.257812 C 1316.121094 1621.257812 1421.398438 1574.125 1497.601562 1497.921875 C 1573.800781 1421.71875 1620.941406 1316.441406 1620.941406 1200.160156 C 1620.941406 1083.878906 1573.800781 978.601562 1497.601562 902.398438 C 1421.398438 826.199219 1316.121094 779.058594 1199.839844 779.058594 C 1083.550781 779.058594 978.277344 826.199219 902.078125 902.398438 C 825.875 978.601562 778.742188 1083.878906 778.742188 1200.160156 C 778.742188 1242.730469 785.167969 1284.75 797.597656 1324.851562 C 810.03125 1364.96875 828.488281 1403.25 852.542969 1438.328125 "/>
</svg>
